# xmcd
#
# Track frame offsets: 
#        150
#        23622
#        44621
#        68670
#        90597
#        106149
#        122761
#        154243
#        179911
#        202989
#        224180
#        269758
#        282899
#        302511
#
# Disc length: 4434 seconds
#
# Revision: 2
# Processed by: cddbd v1.5.2PL0 Copyright (c) Steve Scherf et al.
# Submitted via: ExactAudioCopy v1.3
#
DISCID=d111500e
DTITLE=Philipp Fankhauser - Plays Montreux Jazz Festival
DYEAR=2012
DGENRE=Blues
TTITLE0=Sunday Morning
TTITLE1=It's Gonna Rain
TTITLE2=Jealous Kinda Fella
TTITLE3=Blues Ain't Nothin'
TTITLE4=Try My Love
TTITLE5=Love Man Riding
TTITLE6=Roadhouses and Automobiles
TTITLE7=Please Come On Home
TTITLE8=Don't Be Afraid Of The Dark
TTITLE9=Flyin' High (Yesterday)
TTITLE10=Down On Bending Knees
TTITLE11=Down In The Valley
TTITLE12=Tosho Workin'
TTITLE13=Down In The Valley (Reprise)
EXTD=
EXTT0=
EXTT1=
EXTT2=
EXTT3=
EXTT4=
EXTT5=
EXTT6=
EXTT7=
EXTT8=
EXTT9=
EXTT10=
EXTT11=
EXTT12=
EXTT13=
PLAYORDER=
